<svg version="1.2" xmlns="http://www.w3.org/2000/svg" viewBox="0 0 256 256" width="256" height="256"><style>.a{fill:#3f2140;stroke:#fff;stroke-miterlimit:100;stroke-width:9.3}.b{fill:#8f6433}.c{fill:#7ea43f}.d{fill:#fff}.e{fill:#fd2429}.f{fill:#fec537}</style><path fill-rule="evenodd" class="a" d="m127.8 13c6.2 0 11.9 3.3 15 8.6l94.4 160.6c3.2 5.4 3.2 12.1 0.1 17.5-3.1 5.4-8.9 8.8-15.2 8.8h-188.6c-6.3 0-12.1-3.4-15.2-8.8-3.1-5.4-3.1-12.1 0.1-17.5l94.3-160.6c3.2-5.3 8.9-8.6 15.1-8.6z"/><path class="b" d="m78.3 147.5c-1.5-10.9-16.9-4 13.1-4-2.6 3.1-2.7 17 0.7 24.9 3.3 3.3-8.7 7.5-11.8 2.1 3.6-5.1 1.3-21.4-2-23z"/><path class="c" d="m65 148c0.5-10.8 13.1-56.7 16.7-55 3.5 1.7 22.1 40.1 17.6 47.7-4.5 7.6-34.8 19-34.3 7.3z"/><path class="b" d="m173.1 152.7c0 0 6.3-2.8 10.2 1.2-4.9 3.5-3.4 18.1-3.4 18.1 0 0-39.8-2.6-9.8-2.6 5-5 3-16.7 3-16.7z"/><path class="c" d="m192.1 152.1c-0.3-8.9-10.2-46.1-13-44.4-2.7 1.6-17.2 34.5-13.7 40.5 3.5 6 27.1 13.5 26.7 3.9z"/><path class="d" d="m33.8 208.7c19.1-31 53.4-51.7 92.7-51.7 38.6 0 72.4 19.9 91.6 49.9-56.1 1-163.1 6.5-184.3 1.8z"/><path class="e" d="m156.6 165.7c-4.7 21.5-52.4 28.6-51.6-4.2 0.5-22.3 24.1-25.2 5.4-47.9 32.5 0.8 51.4 28.1 46.2 52.1z"/><path class="f" d="m143.7 173.8c-5.7 11.2-33.1 8.5-28-9.6 3.4-12.3 16.9-10.6 9.7-25.8 17.9 5.1 24.6 22.8 18.3 35.4z"/><path class="f" d="m126.5 78.4c-10.8 0-19.5-6.7-19.5-14.9 0-8.2 8.7-14.9 19.5-14.9 10.8 0 19.5 6.7 19.5 14.9 0 8.2-8.7 14.9-19.5 14.9z"/><path class="d" d="m105.8 63.7l-4 26.5c0 0 6.7 4.8 18.7 3.1-4.3 8.6-2.7 8.8-2.7 8.8h22.4l-4.2-8.6c0 0 10 1.2 17-4.1-2.6-12-6.1-26.4-6.1-26.4 0 0-16.5 8.1-41.1 0.7z"/></svg>